<svg width="66" height="66" viewBox="0 0 66 66" fill="none" xmlns="http://www.w3.org/2000/svg">
<rect width="66" height="66" rx="8" fill="#16161B"/>
<g filter="url(#filter0_d_1_476)">
<path d="M38 24.25C36.2051 24.25 34.75 25.7051 34.75 27.5C34.75 29.2949 36.2051 30.75 38 30.75C39.7949 30.75 41.25 29.2949 41.25 27.5C41.25 25.7051 39.7949 24.25 38 24.25Z" fill="#676778"/>
<path d="M29 25.25C26.9289 25.25 25.25 26.9289 25.25 29C25.25 31.0711 26.9289 32.75 29 32.75C31.0711 32.75 32.75 31.0711 32.75 29C32.75 26.9289 31.0711 25.25 29 25.25Z" fill="#676778"/>
<path d="M38 32.25C37.2449 32.25 36.4972 32.3987 35.7996 32.6877C35.1019 32.9767 34.4681 33.4002 33.9341 33.9341C33.8463 34.022 33.7614 34.1125 33.6797 34.2056C34.0917 34.4895 34.4781 34.8109 34.8336 35.1664C35.5997 35.9325 36.2074 36.8419 36.622 37.8429C36.7449 38.1395 36.8501 38.4424 36.9373 38.75H43C43.4142 38.75 43.75 38.4142 43.75 38C43.75 37.2449 43.6013 36.4972 43.3123 35.7996C43.0233 35.1019 42.5998 34.4681 42.0659 33.9341C41.5319 33.4002 40.8981 32.9767 40.2004 32.6877C39.5028 32.3987 38.7551 32.25 38 32.25Z" fill="#676778"/>
<path d="M26.4169 34.7638C27.2358 34.4246 28.1136 34.25 29 34.25C29.8864 34.25 30.7642 34.4246 31.5831 34.7638C32.4021 35.103 33.1462 35.6002 33.773 36.227C34.3998 36.8538 34.897 37.5979 35.2362 38.4169C35.5754 39.2358 35.75 40.1136 35.75 41C35.75 41.4142 35.4142 41.75 35 41.75H23C22.5858 41.75 22.25 41.4142 22.25 41C22.25 40.1136 22.4246 39.2358 22.7638 38.4169C23.103 37.5979 23.6002 36.8538 24.227 36.227C24.8538 35.6002 25.5979 35.103 26.4169 34.7638Z" fill="#676778"/>
</g>
<defs>
<filter id="filter0_d_1_476" x="4.4" y="8.4" width="57.2" height="57.2" filterUnits="userSpaceOnUse" color-interpolation-filters="sRGB">
<feFlood flood-opacity="0" result="BackgroundImageFix"/>
<feColorMatrix in="SourceAlpha" type="matrix" values="0 0 0 0 0 0 0 0 0 0 0 0 0 0 0 0 0 0 127 0" result="hardAlpha"/>
<feOffset dy="4"/>
<feGaussianBlur stdDeviation="8.3"/>
<feComposite in2="hardAlpha" operator="out"/>
<feColorMatrix type="matrix" values="0 0 0 0 0.403922 0 0 0 0 0.403922 0 0 0 0 0.470588 0 0 0 0.43 0"/>
<feBlend mode="normal" in2="BackgroundImageFix" result="effect1_dropShadow_1_476"/>
<feBlend mode="normal" in="SourceGraphic" in2="effect1_dropShadow_1_476" result="shape"/>
</filter>
</defs>
</svg>
