<svg width="18" height="16" viewBox="0 0 18 16" fill="none" xmlns="http://www.w3.org/2000/svg">
<path d="M13.1667 0.708374C11.6709 0.708374 10.4584 1.92094 10.4584 3.41671C10.4584 4.91248 11.6709 6.12504 13.1667 6.12504C14.6625 6.12504 15.875 4.91248 15.875 3.41671C15.875 1.92094 14.6625 0.708374 13.1667 0.708374Z" fill="#363640"/>
<path d="M5.66669 1.54171C3.9408 1.54171 2.54169 2.94082 2.54169 4.66671C2.54169 6.3926 3.9408 7.79171 5.66669 7.79171C7.39258 7.79171 8.79169 6.3926 8.79169 4.66671C8.79169 2.94082 7.39258 1.54171 5.66669 1.54171Z" fill="#363640"/>
<path d="M13.1667 7.37504C12.5374 7.37504 11.9143 7.49898 11.333 7.73978C10.7516 7.98059 10.2234 8.33354 9.77847 8.77849C9.70526 8.8517 9.63454 8.92716 9.5664 9.00474C9.9098 9.24126 10.2318 9.50909 10.528 9.80535C11.1664 10.4437 11.6729 11.2016 12.0184 12.0358C12.1207 12.2829 12.2084 12.5354 12.2811 12.7917H17.3334C17.6785 12.7917 17.9584 12.5119 17.9584 12.1667C17.9584 11.5375 17.8344 10.9144 17.5936 10.333C17.3528 9.75166 16.9999 9.22343 16.5549 8.77849C16.11 8.33354 15.5817 7.98059 15.0004 7.73978C14.419 7.49898 13.7959 7.37504 13.1667 7.37504Z" fill="#363640"/>
<path d="M3.51409 9.46988C4.19655 9.1872 4.928 9.04171 5.66669 9.04171C6.40537 9.04171 7.13682 9.1872 7.81928 9.46988C8.50174 9.75257 9.12183 10.1669 9.64416 10.6892C10.1665 11.2116 10.5808 11.8317 10.8635 12.5141C11.1462 13.1966 11.2917 13.928 11.2917 14.6667C11.2917 15.0119 11.0119 15.2917 10.6667 15.2917H0.666687C0.321509 15.2917 0.041687 15.0119 0.041687 14.6667C0.041687 13.928 0.187183 13.1966 0.469864 12.5141C0.752546 11.8317 1.16688 11.2116 1.68921 10.6892C2.21154 10.1669 2.83164 9.75257 3.51409 9.46988Z" fill="#363640"/>
</svg>
