<svg width="18" height="18" viewBox="0 0 18 18" fill="none" xmlns="http://www.w3.org/2000/svg">
<path d="M1.00486 16.9951C0.897646 16.8879 0.812599 16.7606 0.754575 16.6206C0.696551 16.4805 0.666687 16.3303 0.666687 16.1787C0.666687 16.0271 0.696551 15.8769 0.754575 15.7369C0.812599 15.5968 0.897646 15.4695 1.00486 15.3623L3.45411 12.913L1.82128 11.2801C1.60475 11.0636 1.48311 10.7699 1.48311 10.4637C1.48311 10.1575 1.60475 9.86382 1.82128 9.64729C2.0378 9.43077 2.33148 9.30912 2.63769 9.30912C2.94391 9.30912 3.23758 9.43077 3.45411 9.64729L8.35269 14.5458C8.56923 14.7623 8.69089 15.056 8.69089 15.3622C8.6909 15.6684 8.56926 15.9621 8.35273 16.1787C8.13621 16.3952 7.84253 16.5169 7.5363 16.5169C7.23008 16.5169 6.9364 16.3952 6.71986 16.1787L5.08703 14.5458L2.63769 16.9951C2.53048 17.1023 2.4032 17.1874 2.26312 17.2454C2.12304 17.3034 1.9729 17.3333 1.82128 17.3333C1.66965 17.3333 1.51952 17.3034 1.37943 17.2454C1.23935 17.1874 1.11207 17.1023 1.00486 16.9951ZM16.5 0.666626H14.4129C14.1918 0.666629 13.9799 0.754428 13.8236 0.910709L5.44903 9.28529L8.71461 12.5511L17.0896 4.17613C17.2457 4.01985 17.3334 3.808 17.3334 3.58713V1.49996C17.3334 1.27895 17.2456 1.06698 17.0893 0.910704C16.933 0.754423 16.721 0.666626 16.5 0.666626ZM14.5459 12.913L16.1788 11.2801C16.3953 11.0636 16.5169 10.7699 16.5169 10.4637C16.5169 10.1575 16.3953 9.86382 16.1788 9.64729C15.9622 9.43077 15.6686 9.30912 15.3624 9.30912C15.0561 9.30912 14.7625 9.43077 14.5459 9.64729L9.64736 14.5458C9.54014 14.653 9.45509 14.7803 9.39706 14.9204C9.33903 15.0605 9.30916 15.2106 9.30916 15.3622C9.30915 15.6684 9.43079 15.9621 9.64732 16.1787C9.86384 16.3952 10.1575 16.5169 10.4637 16.5169C10.77 16.5169 11.0637 16.3952 11.2802 16.1787L12.913 14.5458L15.3624 16.9951C15.5789 17.2117 15.8726 17.3333 16.1788 17.3333C16.485 17.3333 16.7787 17.2117 16.9952 16.9951C17.2117 16.7786 17.3334 16.4849 17.3334 16.1787C17.3334 15.8725 17.2117 15.5788 16.9952 15.3623L14.5459 12.913ZM3.58719 0.666626H1.50003C1.27901 0.666626 1.06705 0.754423 0.910771 0.910704C0.75449 1.06698 0.666693 1.27895 0.666693 1.49996V3.58713C0.666684 3.69657 0.688234 3.80495 0.730114 3.90607C0.771995 4.00719 0.833384 4.09907 0.910776 4.17646L4.55628 7.82188L7.82186 4.55604L4.17644 0.910709C4.02016 0.754428 3.80821 0.666629 3.58719 0.666626Z" fill="#363640"/>
</svg>
