<svg width="66" height="66" viewBox="0 0 66 66" fill="none" xmlns="http://www.w3.org/2000/svg">
<rect width="66" height="66" rx="8" fill="#16161B"/>
<g filter="url(#filter0_d_1_471)">
<path d="M23.4058 42.5942C23.2772 42.4655 23.1751 42.3128 23.1055 42.1447C23.0358 41.9766 23 41.7964 23 41.6145C23 41.4326 23.0358 41.2524 23.1055 41.0843C23.1751 40.9162 23.2772 40.7635 23.4058 40.6348L26.3449 37.6956L24.3855 35.7362C24.1257 35.4764 23.9797 35.124 23.9797 34.7565C23.9797 34.389 24.1257 34.0366 24.3855 33.7768C24.6453 33.517 24.9977 33.371 25.3652 33.371C25.7327 33.371 26.0851 33.517 26.3449 33.7768L32.2232 39.655C32.4831 39.9148 32.629 40.2672 32.629 40.6347C32.6291 41.0022 32.4831 41.3546 32.2233 41.6145C31.9634 41.8743 31.611 42.0203 31.2435 42.0203C30.8761 42.0203 30.5237 41.8743 30.2638 41.6145L28.3044 39.655L25.3652 42.5942C25.2366 42.7229 25.0838 42.8249 24.9157 42.8945C24.7476 42.9642 24.5675 43 24.3855 43C24.2036 43 24.0234 42.9642 23.8553 42.8945C23.6872 42.8249 23.5345 42.7229 23.4058 42.5942ZM42 23H39.4954C39.2302 23 38.9758 23.1054 38.7883 23.2929L28.7388 33.3424L32.6575 37.2614L42.7075 27.2114C42.8948 27.0239 43 26.7697 43 26.5046V24C43 23.7348 42.8947 23.4804 42.7071 23.2929C42.5196 23.1054 42.2652 23 42 23ZM39.6551 37.6956L41.6145 35.7362C41.8743 35.4764 42.0203 35.124 42.0203 34.7565C42.0203 34.389 41.8743 34.0366 41.6145 33.7768C41.3547 33.517 41.0023 33.371 40.6348 33.371C40.2673 33.371 39.9149 33.517 39.6551 33.7768L33.7768 39.655C33.6481 39.7837 33.5461 39.9364 33.4764 40.1045C33.4068 40.2726 33.371 40.4528 33.371 40.6347C33.371 41.0022 33.5169 41.3546 33.7768 41.6145C34.0366 41.8743 34.389 42.0203 34.7565 42.0203C35.1239 42.0203 35.4764 41.8743 35.7362 41.6145L37.6956 39.655L40.6348 42.5942C40.8946 42.854 41.247 43 41.6145 43C41.982 43 42.3344 42.854 42.5942 42.5942C42.854 42.3344 43 41.982 43 41.6145C43 41.247 42.854 40.8946 42.5942 40.6348L39.6551 37.6956ZM26.5046 23H24C23.7348 23 23.4804 23.1054 23.2929 23.2929C23.1054 23.4804 23 23.7348 23 24V26.5046C23 26.6359 23.0259 26.766 23.0761 26.8873C23.1264 27.0087 23.2 27.1189 23.2929 27.2118L27.6675 31.5863L31.5862 27.6673L27.2117 23.2929C27.0242 23.1054 26.7698 23 26.5046 23Z" fill="#676778"/>
</g>
<defs>
<filter id="filter0_d_1_471" x="4.4" y="8.4" width="57.2" height="57.2" filterUnits="userSpaceOnUse" color-interpolation-filters="sRGB">
<feFlood flood-opacity="0" result="BackgroundImageFix"/>
<feColorMatrix in="SourceAlpha" type="matrix" values="0 0 0 0 0 0 0 0 0 0 0 0 0 0 0 0 0 0 127 0" result="hardAlpha"/>
<feOffset dy="4"/>
<feGaussianBlur stdDeviation="8.3"/>
<feComposite in2="hardAlpha" operator="out"/>
<feColorMatrix type="matrix" values="0 0 0 0 0.403922 0 0 0 0 0.403922 0 0 0 0 0.470588 0 0 0 0.43 0"/>
<feBlend mode="normal" in2="BackgroundImageFix" result="effect1_dropShadow_1_471"/>
<feBlend mode="normal" in="SourceGraphic" in2="effect1_dropShadow_1_471" result="shape"/>
</filter>
</defs>
</svg>
