<svg width="18" height="18" viewBox="0 0 18 18" fill="none" xmlns="http://www.w3.org/2000/svg">
<path d="M4.83335 0.716626C5.06044 0.683987 5.29238 0.666626 5.5278 0.666626H12.4722C12.7077 0.666626 12.9396 0.683987 13.1667 0.716626V6.91663H11.0834C11.0834 5.76801 10.1486 4.83329 9.00002 4.83329C7.85141 4.83329 6.91669 5.76801 6.91669 6.91663H4.83335V0.716626ZM14.5556 6.91663H17.3334V5.52774C17.3334 3.59232 16.1965 1.91801 14.5556 1.13607V6.91663ZM11.0834 8.30551V8.99996C11.0834 10.1486 10.1486 11.0833 9.00002 11.0833C7.85141 11.0833 6.91669 10.1486 6.91669 8.99996V8.30551H0.666687V13.8611C0.666687 15.5375 1.86183 16.9409 3.44446 17.2632V10.3888C3.44446 10.0055 3.75488 9.6944 4.13891 9.6944C4.52294 9.6944 4.83335 10.0055 4.83335 10.3888V17.3333H13.1667V10.3888C13.1667 10.0055 13.4771 9.6944 13.8611 9.6944C14.2452 9.6944 14.5556 10.0055 14.5556 10.3888V17.2632C16.1382 16.9402 17.3334 15.5375 17.3334 13.8611V8.30551H11.0834ZM3.44446 6.91663V1.13607C1.80349 1.91801 0.666687 3.59232 0.666687 5.52774V6.91663H3.44446ZM9.00002 9.6944C9.38335 9.6944 9.69446 9.3826 9.69446 8.99996V6.91663C9.69446 6.53399 9.38335 6.22218 9.00002 6.22218C8.61669 6.22218 8.30558 6.53399 8.30558 6.91663V8.99996C8.30558 9.3826 8.61669 9.6944 9.00002 9.6944Z" fill="#363640"/>
</svg>
