<svg width="18" height="17" viewBox="0 0 18 17" fill="none" xmlns="http://www.w3.org/2000/svg">
<path fill-rule="evenodd" clip-rule="evenodd" d="M17.125 4.33333C17.125 2.14721 15.3528 0.375 13.1667 0.375H4.83333C2.64721 0.375 0.875 2.14721 0.875 4.33333V10.1667C0.875 12.3528 2.64721 14.125 4.83333 14.125H6.8125L8.5 16.375C8.61803 16.5324 8.80328 16.625 9 16.625C9.19672 16.625 9.38197 16.5324 9.5 16.375L11.1875 14.125H13.1667C15.3528 14.125 17.125 12.3528 17.125 10.1667V4.33333ZM12.3333 8.08333C11.8667 8.08333 11.5 7.70833 11.5 7.25C11.5 6.79167 11.875 6.41667 12.3333 6.41667C12.7917 6.41667 13.1667 6.79167 13.1667 7.25C13.1667 7.70833 12.8 8.08333 12.3333 8.08333ZM9 8.08333C8.53333 8.08333 8.16667 7.70833 8.16667 7.25C8.16667 6.79167 8.54167 6.41667 9 6.41667C9.45833 6.41667 9.83333 6.79167 9.83333 7.25C9.83333 7.70833 9.46667 8.08333 9 8.08333ZM4.83333 7.25C4.83333 7.70833 5.2 8.08333 5.66667 8.08333C6.13333 8.08333 6.5 7.70833 6.5 7.25C6.5 6.79167 6.125 6.41667 5.66667 6.41667C5.20833 6.41667 4.83333 6.79167 4.83333 7.25Z" fill="#4B4B58"/>
</svg>
