<svg width="16" height="15" viewBox="0 0 16 15" fill="none" xmlns="http://www.w3.org/2000/svg">
<path fill-rule="evenodd" clip-rule="evenodd" d="M1.4589 11.4716C0.493992 10.506 0.412156 9.02585 0.82359 7.58583C1.24178 6.12216 2.20222 4.54274 3.58082 3.16414C4.95943 1.78554 6.53885 0.825093 8.00251 0.406904C9.44289 -0.0046316 10.9234 0.0773457 11.889 1.04292L11.9074 1.06155L11.9163 1.07023L14.5405 3.69442C15.506 4.66 15.588 6.1405 15.1765 7.58087C14.7583 9.04454 13.7979 10.624 12.4192 12.0026C11.0406 13.3812 9.46122 14.3416 7.99756 14.7598C6.55719 15.1713 5.07668 15.0894 4.11111 14.1238L1.4589 11.4716ZM4.46471 4.04802C5.72202 2.79071 7.12252 1.95835 8.34591 1.60881C9.59259 1.25261 10.5063 1.42798 11.0051 1.9268C11.5039 2.42562 11.6793 3.33929 11.3231 4.58597C10.9735 5.80936 10.1412 7.20987 8.88386 8.46718C7.62656 9.72449 6.22605 10.5568 5.00266 10.9064C4.77387 10.9718 4.5563 11.0192 4.35045 11.0501C3.43481 11.1872 2.75113 10.9955 2.34391 10.5883L2.33135 10.5761C1.84185 10.0747 1.6722 9.16574 2.02549 7.92923C2.37504 6.70584 3.2074 5.30533 4.46471 4.04802ZM8.54532 10.4266L10.2978 12.1791L10.2526 12.2243C9.91386 12.4738 9.57268 12.6939 9.23449 12.8836L7.49697 11.1461C7.84978 10.9324 8.20059 10.692 8.54532 10.4266ZM13.3003 8.81795L11.5629 7.08055C11.3492 7.43333 11.1088 7.78413 10.8434 8.12884L12.5959 9.88131L12.6406 9.83661C12.8902 9.49771 13.1105 9.15633 13.3003 8.81795Z" fill="#A3A3B7"/>
<path fill-rule="evenodd" clip-rule="evenodd" d="M8.70696 4.2247C8.95104 4.46877 8.95104 4.8645 8.70696 5.10858L8.59495 5.22059C8.60069 5.23789 8.60607 5.25555 8.61104 5.2736C8.69725 5.5864 8.63481 5.89732 8.49306 6.19211C8.34348 6.50319 7.97003 6.63411 7.65895 6.48453C7.34787 6.33495 7.21694 5.9615 7.36653 5.65042C7.37604 5.63063 7.38294 5.6143 7.38793 5.60119C7.38485 5.59791 7.38155 5.59444 7.378 5.59077C7.37159 5.58487 7.36528 5.57881 7.35906 5.5726C7.35386 5.56739 7.34877 5.56212 7.34378 5.55678C7.32117 5.53573 7.30544 5.52475 7.29619 5.51927C7.26626 5.52911 7.18933 5.56561 7.06196 5.69298C6.96667 5.78827 6.90817 5.88496 6.88138 5.95488C6.82558 6.1005 7.07346 6.50872 7.13061 6.65556C7.25361 6.97366 7.19474 7.29884 7.10262 7.53919C7.00562 7.7923 6.84245 8.03371 6.63878 8.23738C6.29353 8.58262 5.90119 8.79546 5.46939 8.7791C5.33641 8.77406 5.21557 8.74774 5.10696 8.70858L4.99483 8.82071C4.75076 9.06479 4.35503 9.06479 4.11095 8.82071C3.86687 8.57663 3.86687 8.1809 4.11095 7.93683L4.2222 7.82557C4.21626 7.8076 4.21069 7.78923 4.20557 7.77045C4.12022 7.45744 4.18335 7.1466 4.32531 6.85199C4.47515 6.54104 4.84871 6.41043 5.15967 6.56027C5.47062 6.71012 5.60123 7.08367 5.45139 7.39463C5.44157 7.415 5.43449 7.43177 5.4294 7.44518C5.43944 7.45401 5.44926 7.46322 5.45885 7.47281C5.46771 7.48167 5.47624 7.49073 5.48446 7.49997C5.50106 7.51446 5.51305 7.52269 5.52066 7.5272C5.55059 7.51736 5.62752 7.48086 5.75489 7.35349C5.85032 7.25807 5.9087 7.16156 5.9354 7.09186C5.99127 6.94609 5.74392 6.5391 5.68675 6.39221C5.56283 6.07363 5.6222 5.74755 5.71413 5.50763C5.81111 5.25454 5.97428 5.01289 6.17808 4.80909C6.52333 4.46384 6.91567 4.251 7.34747 4.26736C7.48045 4.2724 7.60129 4.29872 7.70989 4.33788L7.82308 4.2247C8.06716 3.98062 8.46289 3.98062 8.70696 4.2247ZM5.52936 7.53172L5.53069 7.53219ZM7.28749 5.51474L7.28616 5.51427Z" fill="#A3A3B7"/>
</svg>
