<svg width="15" height="15" viewBox="0 0 15 15" fill="none" xmlns="http://www.w3.org/2000/svg">
<path d="M13.3523 0.352252L7.79546 5.90904L8.59096 6.70454L14.1477 1.14775C14.3674 0.928078 14.3674 0.571922 14.1477 0.352252C13.9281 0.132583 13.5719 0.132583 13.3523 0.352252Z" fill="#9F65FF"/>
<path d="M5.40898 8.29553L6.20447 9.09102L5.52915 9.76634C5.91039 10.3099 6.1189 10.9613 6.1189 11.6343C6.1189 12.1915 5.9759 12.734 5.71029 13.2127C5.50566 13.5815 5.14626 13.7651 4.7872 13.7807C4.44004 13.7958 4.09374 13.6576 3.8403 13.4041L3.57943 13.1433L2.78831 13.9344C2.17463 14.5481 1.17966 14.5481 0.565974 13.9344C-0.0477066 13.3207 -0.047708 12.3257 0.565973 11.7121L1.3571 10.9209L1.09605 10.6599C0.842601 10.4064 0.704349 10.0601 0.71948 9.71298C0.735129 9.35392 0.918715 8.99452 1.28748 8.7899C1.76615 8.52428 2.30866 8.38129 2.86592 8.38129C3.53876 8.38129 4.19011 8.58974 4.73363 8.97088L5.40898 8.29553Z" fill="#9F65FF"/>
<path d="M0.227252 1.52275C0.00758266 1.30308 0.00758266 0.946922 0.227252 0.727252C0.446923 0.507582 0.803077 0.507582 1.02275 0.727252L9.26646 8.97096C9.81003 8.58971 10.4615 8.3812 11.1344 8.3812C11.6917 8.3812 12.2342 8.52419 12.7129 8.7898C13.0816 8.99443 13.2652 9.35383 13.2809 9.71289C13.296 10.0601 13.1577 10.4063 12.9043 10.6598L12.643 10.9211L13.434 11.7121C14.0477 12.3257 14.0477 13.3207 13.434 13.9344C12.8203 14.5481 11.8254 14.5481 11.2117 13.9344L10.4207 13.1434L10.16 13.404C9.90659 13.6575 9.5603 13.7957 9.21314 13.7806C8.85408 13.765 8.49468 13.5814 8.29005 13.2126C8.02444 12.7339 7.88144 12.1914 7.88144 11.6342C7.88144 10.9613 8.08988 10.31 8.47101 9.7665L0.227252 1.52275Z" fill="#9F65FF"/>
</svg>
