<svg width="66" height="66" viewBox="0 0 66 66" fill="none" xmlns="http://www.w3.org/2000/svg">
<rect width="66" height="66" rx="8" fill="#16161B"/>
<g filter="url(#filter0_d_1_483)">
<path fill-rule="evenodd" clip-rule="evenodd" d="M33 23.25C38.3848 23.25 42.75 27.6152 42.75 33C42.75 38.3848 38.3848 42.75 33 42.75C31.2727 42.75 29.6484 42.3002 28.2401 41.511L24.2155 42.7184C23.9348 42.8026 23.6308 42.7156 23.4372 42.4957C23.2435 42.2758 23.1956 41.9632 23.3147 41.6954L24.8202 38.3079C23.8271 36.7803 23.25 34.9566 23.25 33C23.25 27.6152 27.6152 23.25 33 23.25ZM33 29.75C32.3097 29.75 31.75 30.3096 31.75 31C31.75 31.4142 31.4142 31.75 31 31.75C30.5858 31.75 30.25 31.4142 30.25 31C30.25 29.4812 31.4812 28.25 33 28.25H33.3333C34.668 28.25 35.75 29.332 35.75 30.6667C35.75 31.4273 35.3919 32.1436 34.7833 32.6L34.25 33C33.9353 33.2361 33.75 33.6066 33.75 34C33.75 34.4142 33.4142 34.75 33 34.75C32.5858 34.75 32.25 34.4142 32.25 34C32.25 33.1344 32.6575 32.3193 33.35 31.8L33.8833 31.4C34.1142 31.2269 34.25 30.9552 34.25 30.6667C34.25 30.1604 33.8396 29.75 33.3333 29.75H33ZM33 35.5C32.4477 35.5 32 35.9477 32 36.5C32 37.0523 32.4477 37.5 33 37.5C33.5523 37.5 34 37.0523 34 36.5C34 35.9477 33.5523 35.5 33 35.5Z" fill="#4B4B58"/>
</g>
<defs>
<filter id="filter0_d_1_483" x="4.4" y="8.4" width="57.2" height="57.2" filterUnits="userSpaceOnUse" color-interpolation-filters="sRGB">
<feFlood flood-opacity="0" result="BackgroundImageFix"/>
<feColorMatrix in="SourceAlpha" type="matrix" values="0 0 0 0 0 0 0 0 0 0 0 0 0 0 0 0 0 0 127 0" result="hardAlpha"/>
<feOffset dy="4"/>
<feGaussianBlur stdDeviation="8.3"/>
<feComposite in2="hardAlpha" operator="out"/>
<feColorMatrix type="matrix" values="0 0 0 0 0.403922 0 0 0 0 0.403922 0 0 0 0 0.470588 0 0 0 0.43 0"/>
<feBlend mode="normal" in2="BackgroundImageFix" result="effect1_dropShadow_1_483"/>
<feBlend mode="normal" in="SourceGraphic" in2="effect1_dropShadow_1_483" result="shape"/>
</filter>
</defs>
</svg>
