<svg width="20" height="20" viewBox="0 0 20 20" fill="none" xmlns="http://www.w3.org/2000/svg">
<path d="M18.4697 0.96967L11.0606 8.37872L12.1213 9.43938L19.5303 2.03033C19.8232 1.73744 19.8232 1.26256 19.5303 0.96967C19.2374 0.676777 18.7626 0.676777 18.4697 0.96967Z" fill="#9F65FF"/>
<path d="M7.87864 11.5607L8.9393 12.6214L8.03887 13.5218C8.54719 14.2465 8.8252 15.1151 8.8252 16.0124C8.8252 16.7554 8.63454 17.4787 8.28038 18.1169C8.00754 18.6086 7.52835 18.8534 7.0496 18.8743C6.58672 18.8944 6.12499 18.7101 5.78706 18.3722L5.43924 18.0244L4.38441 19.0792C3.56617 19.8974 2.23954 19.8974 1.4213 19.0792C0.603058 18.261 0.603056 16.9343 1.4213 16.1161L2.47613 15.0612L2.12806 14.7132C1.79013 14.3753 1.6058 13.9135 1.62597 13.4506C1.64684 12.9719 1.89162 12.4927 2.38331 12.2199C3.02153 11.8657 3.74488 11.675 4.48789 11.675C5.38501 11.675 6.25348 11.953 6.97817 12.4612L7.87864 11.5607Z" fill="#9F65FF"/>
<path d="M0.969669 2.53033C0.676777 2.23744 0.676777 1.76256 0.969669 1.46967C1.26256 1.17678 1.73744 1.17678 2.03033 1.46967L13.0219 12.4613C13.7467 11.9529 14.6153 11.6749 15.5126 11.6749C16.2556 11.6749 16.9789 11.8656 17.6171 12.2197C18.1088 12.4926 18.3536 12.9718 18.3745 13.4505C18.3947 13.9134 18.2103 14.3751 17.8724 14.7131L17.524 15.0614L18.5787 16.1161C19.3969 16.9343 19.3969 18.261 18.5787 19.0792C17.7605 19.8974 16.4338 19.8974 15.6156 19.0792L14.5609 18.0245L14.2134 18.3721C13.8755 18.71 13.4137 18.8943 12.9508 18.8741C12.4721 18.8533 11.9929 18.6085 11.7201 18.1168C11.3659 17.4786 11.1753 16.7552 11.1753 16.0122C11.1753 15.1151 11.4532 14.2467 11.9613 13.522L0.969669 2.53033Z" fill="#9F65FF"/>
</svg>
