<svg width="72" height="72" viewBox="0 0 72 72" fill="none" xmlns="http://www.w3.org/2000/svg">
<g clip-path="url(#clip0_1_454)">
<rect width="66" height="66" rx="8" fill="url(#paint0_linear_1_454)"/>
<g filter="url(#filter0_f_1_454)">
<circle cx="33" cy="63" r="34" fill="#735CFF"/>
</g>
<g filter="url(#filter1_d_1_454)">
<path d="M33.2917 28.0417H33C32.8627 28.0361 32.7285 27.9987 32.6081 27.9323C32.4877 27.8659 32.3844 27.7725 32.3063 27.6593C32.2282 27.5462 32.1775 27.4164 32.1582 27.2803C32.1389 27.1442 32.1515 27.0054 32.195 26.875C32.6034 25.8484 32.9767 24.7984 33.28 23.7717C33.5367 22.9784 34.54 20.4934 37.06 20.4934C38.0422 20.4619 38.9967 20.8213 39.7141 21.4928C40.4315 22.1643 40.8532 23.093 40.8867 24.075C40.8867 26.3267 38.3317 27.2484 37.3867 27.575C36.0507 27.9237 34.6719 28.0808 33.2917 28.0417ZM37.0484 22.2084C35.7067 22.2084 35.1 23.76 34.9484 24.2384C34.7384 24.915 34.5167 25.5917 34.2717 26.2684C35.1081 26.263 35.94 26.1453 36.745 25.9184C37.41 25.685 39.0784 25.055 39.0784 24.04C39.0424 23.5315 38.8109 23.0567 38.4324 22.7152C38.0539 22.3736 37.5579 22.192 37.0484 22.2084Z" fill="#B2B2FF"/>
<path d="M32.6734 28.0416C31.3232 28.0654 29.9763 27.9005 28.6718 27.5516C25.7668 26.6066 25.1718 25.125 25.1718 24.0516C25.1766 23.5983 25.2732 23.1506 25.4557 22.7356C25.6381 22.3205 25.9027 21.9467 26.2334 21.6366C26.9689 20.8968 27.9669 20.4774 29.0101 20.47C30.9701 20.47 31.9618 22.3016 32.6968 23.6083C33.1744 24.6795 33.5646 25.7875 33.8634 26.9216C33.8996 27.0503 33.9057 27.1856 33.8815 27.3171C33.8572 27.4485 33.8031 27.5727 33.7234 27.68C33.6461 27.7883 33.5449 27.8774 33.4275 27.9401C33.3101 28.0028 33.1798 28.0376 33.0468 28.0416H32.6734ZM28.8818 22.2083C28.3277 22.2322 27.8047 22.4707 27.4234 22.8733C27.2571 23.02 27.1227 23.1991 27.0283 23.3998C26.934 23.6005 26.8819 23.8184 26.8751 24.04C26.8751 24.7516 27.7384 25.44 29.2084 25.9183C30.0662 26.14 30.9475 26.2575 31.8334 26.2683C31.6447 25.647 31.4148 25.039 31.1451 24.4483L31.8334 24.0283L31.0751 24.4483C30.3984 23.1533 29.8151 22.2316 28.9168 22.2083H28.8818Z" fill="#B2B2FF"/>
<path d="M43.7917 30.9583V29.5C43.7917 28.6491 43.4537 27.833 42.852 27.2313C42.2503 26.6296 41.4343 26.2916 40.5834 26.2916H25.4167C24.5658 26.2916 23.7498 26.6296 23.1481 27.2313C22.5464 27.833 22.2084 28.6491 22.2084 29.5V30.9583H43.7917Z" fill="#B2B2FF"/>
<path d="M33.875 32.7083V45.5416H40.5833C41.4342 45.5416 42.2503 45.2036 42.852 44.6019C43.4536 44.0002 43.7917 43.1842 43.7917 42.3333V32.7083H33.875Z" fill="#B2B2FF"/>
<path d="M32.125 32.7083H22.2084V42.3333C22.2084 43.1842 22.5464 44.0002 23.1481 44.6019C23.7498 45.2036 24.5658 45.5416 25.4167 45.5416H32.125V32.7083Z" fill="#B2B2FF"/>
</g>
</g>
<rect x="0.5" y="0.5" width="65" height="65" rx="7.5" stroke="url(#paint1_linear_1_454)"/>
<rect x="32" y="52.6807" width="37" height="19" rx="4" transform="rotate(-10.4024 32 52.6807)" fill="#39FF88"/>
<path d="M41.2082 65.2242L39.6915 56.9623L44.8847 56.0089L45.1447 57.4253L41.5094 58.0926L41.8756 60.0873L45.2276 59.4719L45.4876 60.8883L42.1356 61.5036L42.7661 64.9382L41.2082 65.2242ZM47.3241 64.1015L46.2494 58.2473L47.713 57.9786L47.8343 58.6396L48.0467 58.6006C48.1253 58.0981 48.5112 57.8077 49.0541 57.708L49.7623 57.578L50.005 58.8999L49.2732 59.0342C48.5178 59.1729 48.0486 59.6739 48.2002 60.5001L48.8113 63.8285L47.3241 64.1015ZM54.258 62.9994C52.4993 63.3222 51.0906 62.3608 50.7526 60.5195L50.7266 60.3779C50.3886 58.5367 51.3522 57.1397 53.099 56.8191C54.8222 56.5027 56.1688 57.5244 56.4981 59.3184L56.5913 59.8259L52.3305 60.6081C52.5133 61.4042 53.2406 61.8441 54.0668 61.6924C54.893 61.5407 55.1573 61.053 55.2756 60.5677L56.6083 60.9818C56.3927 61.668 55.8631 62.7047 54.258 62.9994ZM52.1386 59.4965L54.8769 58.9938C54.6826 58.334 54.0927 57.9787 53.3255 58.1195C52.5229 58.2669 52.1214 58.8042 52.1386 59.4965ZM60.8339 61.7922C59.0752 62.115 57.6665 61.1536 57.3285 59.3124L57.3025 59.1707C56.9645 57.3295 57.9281 55.9325 59.6749 55.6119C61.3981 55.2955 62.7447 56.3172 63.074 58.1112L63.1672 58.6187L58.9064 59.4009C59.0891 60.197 59.8165 60.6369 60.6427 60.4852C61.4689 60.3335 61.7332 59.8458 61.8515 59.3605L63.1842 59.7746C62.9686 60.4609 62.439 61.4975 60.8339 61.7922ZM58.7145 58.2893L61.4528 57.7866C61.2585 57.1268 60.6686 56.7715 59.9014 56.9123C59.0988 57.0597 58.6973 57.597 58.7145 58.2893Z" fill="#003114"/>
<defs>
<filter id="filter0_f_1_454" x="-27" y="3" width="120" height="120" filterUnits="userSpaceOnUse" color-interpolation-filters="sRGB">
<feFlood flood-opacity="0" result="BackgroundImageFix"/>
<feBlend mode="normal" in="SourceGraphic" in2="BackgroundImageFix" result="shape"/>
<feGaussianBlur stdDeviation="13" result="effect1_foregroundBlur_1_454"/>
</filter>
<filter id="filter1_d_1_454" x="2.4" y="6.4" width="61.2" height="61.2" filterUnits="userSpaceOnUse" color-interpolation-filters="sRGB">
<feFlood flood-opacity="0" result="BackgroundImageFix"/>
<feColorMatrix in="SourceAlpha" type="matrix" values="0 0 0 0 0 0 0 0 0 0 0 0 0 0 0 0 0 0 127 0" result="hardAlpha"/>
<feOffset dy="4"/>
<feGaussianBlur stdDeviation="8.3"/>
<feComposite in2="hardAlpha" operator="out"/>
<feColorMatrix type="matrix" values="0 0 0 0 0.403922 0 0 0 0 0.403922 0 0 0 0 0.470588 0 0 0 0.43 0"/>
<feBlend mode="normal" in2="BackgroundImageFix" result="effect1_dropShadow_1_454"/>
<feBlend mode="normal" in="SourceGraphic" in2="effect1_dropShadow_1_454" result="shape"/>
</filter>
<linearGradient id="paint0_linear_1_454" x1="33" y1="0" x2="33" y2="66" gradientUnits="userSpaceOnUse">
<stop stop-color="#B69CFF" stop-opacity="0.19"/>
<stop offset="1" stop-color="#9E84E7" stop-opacity="0.06"/>
</linearGradient>
<linearGradient id="paint1_linear_1_454" x1="33" y1="0" x2="33" y2="66" gradientUnits="userSpaceOnUse">
<stop stop-color="#705CE4"/>
<stop offset="1" stop-color="#3E337E" stop-opacity="0"/>
</linearGradient>
<clipPath id="clip0_1_454">
<rect width="66" height="66" rx="8" fill="white"/>
</clipPath>
</defs>
</svg>
