<svg width="38" height="38" viewBox="0 0 38 38" fill="none" xmlns="http://www.w3.org/2000/svg">
<rect width="38" height="38" rx="4" fill="#29292F"/>
<path d="M19 10.6666C21.2642 10.6666 21.5467 10.675 22.435 10.7166C23.3225 10.7583 23.9267 10.8975 24.4583 11.1041C25.0083 11.3158 25.4717 11.6025 25.935 12.065C26.3588 12.4815 26.6866 12.9855 26.8958 13.5416C27.1017 14.0725 27.2417 14.6775 27.2833 15.565C27.3225 16.4533 27.3333 16.7358 27.3333 19C27.3333 21.2641 27.325 21.5466 27.2833 22.435C27.2417 23.3225 27.1017 23.9266 26.8958 24.4583C26.6872 25.0148 26.3593 25.5188 25.935 25.935C25.5183 26.3586 25.0144 26.6864 24.4583 26.8958C23.9275 27.1016 23.3225 27.2416 22.435 27.2833C21.5467 27.3225 21.2642 27.3333 19 27.3333C16.7358 27.3333 16.4533 27.325 15.565 27.2833C14.6775 27.2416 14.0733 27.1016 13.5417 26.8958C12.9853 26.687 12.4813 26.3591 12.065 25.935C11.6412 25.5184 11.3133 25.0145 11.1042 24.4583C10.8975 23.9275 10.7583 23.3225 10.7167 22.435C10.6775 21.5466 10.6667 21.2641 10.6667 19C10.6667 16.7358 10.675 16.4533 10.7167 15.565C10.7583 14.6766 10.8975 14.0733 11.1042 13.5416C11.3127 12.9851 11.6407 12.4811 12.065 12.065C12.4814 11.641 12.9854 11.3131 13.5417 11.1041C14.0733 10.8975 14.6767 10.7583 15.565 10.7166C16.4533 10.6775 16.7358 10.6666 19 10.6666ZM19 14.8333C17.8949 14.8333 16.8351 15.2723 16.0537 16.0537C15.2723 16.8351 14.8333 17.8949 14.8333 19C14.8333 20.105 15.2723 21.1648 16.0537 21.9462C16.8351 22.7276 17.8949 23.1666 19 23.1666C20.1051 23.1666 21.1649 22.7276 21.9463 21.9462C22.7277 21.1648 23.1667 20.105 23.1667 19C23.1667 17.8949 22.7277 16.8351 21.9463 16.0537C21.1649 15.2723 20.1051 14.8333 19 14.8333ZM24.4167 14.625C24.4167 14.3487 24.3069 14.0837 24.1116 13.8884C23.9162 13.693 23.6513 13.5833 23.375 13.5833C23.0987 13.5833 22.8338 13.693 22.6384 13.8884C22.4431 14.0837 22.3333 14.3487 22.3333 14.625C22.3333 14.9012 22.4431 15.1662 22.6384 15.3615C22.8338 15.5569 23.0987 15.6666 23.375 15.6666C23.6513 15.6666 23.9162 15.5569 24.1116 15.3615C24.3069 15.1662 24.4167 14.9012 24.4167 14.625ZM19 16.5C19.663 16.5 20.2989 16.7634 20.7678 17.2322C21.2366 17.701 21.5 18.3369 21.5 19C21.5 19.663 21.2366 20.2989 20.7678 20.7677C20.2989 21.2366 19.663 21.5 19 21.5C18.337 21.5 17.7011 21.2366 17.2322 20.7677C16.7634 20.2989 16.5 19.663 16.5 19C16.5 18.3369 16.7634 17.701 17.2322 17.2322C17.7011 16.7634 18.337 16.5 19 16.5Z" fill="#4B4B58"/>
</svg>
