<svg width="20" height="20" viewBox="0 0 20 20" fill="none" xmlns="http://www.w3.org/2000/svg">
<path d="M9.99996 1.66666C12.2641 1.66666 12.5466 1.67499 13.435 1.71666C14.3225 1.75832 14.9266 1.89749 15.4583 2.10416C16.0083 2.31582 16.4716 2.60249 16.935 3.06499C17.3587 3.48157 17.6866 3.98548 17.8958 4.54166C18.1016 5.07249 18.2416 5.67749 18.2833 6.56499C18.3225 7.45332 18.3333 7.73582 18.3333 9.99999C18.3333 12.2642 18.325 12.5467 18.2833 13.435C18.2416 14.3225 18.1016 14.9267 17.8958 15.4583C17.6872 16.0148 17.3592 16.5188 16.935 16.935C16.5183 17.3586 16.0144 17.6865 15.4583 17.8958C14.9275 18.1017 14.3225 18.2417 13.435 18.2833C12.5466 18.3225 12.2641 18.3333 9.99996 18.3333C7.73579 18.3333 7.45329 18.325 6.56496 18.2833C5.67746 18.2417 5.07329 18.1017 4.54163 17.8958C3.98523 17.6871 3.48123 17.3591 3.06496 16.935C2.64113 16.5185 2.31324 16.0145 2.10413 15.4583C1.89746 14.9275 1.75829 14.3225 1.71663 13.435C1.67746 12.5467 1.66663 12.2642 1.66663 9.99999C1.66663 7.73582 1.67496 7.45332 1.71663 6.56499C1.75829 5.67666 1.89746 5.07332 2.10413 4.54166C2.31266 3.98514 2.64063 3.48109 3.06496 3.06499C3.48135 2.64102 3.98532 2.3131 4.54163 2.10416C5.07329 1.89749 5.67663 1.75832 6.56496 1.71666C7.45329 1.67749 7.73579 1.66666 9.99996 1.66666ZM9.99996 5.83332C8.89489 5.83332 7.83508 6.27231 7.05368 7.05371C6.27228 7.83511 5.83329 8.89492 5.83329 9.99999C5.83329 11.1051 6.27228 12.1649 7.05368 12.9463C7.83508 13.7277 8.89489 14.1667 9.99996 14.1667C11.105 14.1667 12.1648 13.7277 12.9462 12.9463C13.7276 12.1649 14.1666 11.1051 14.1666 9.99999C14.1666 8.89492 13.7276 7.83511 12.9462 7.05371C12.1648 6.27231 11.105 5.83332 9.99996 5.83332V5.83332ZM15.4166 5.62499C15.4166 5.34872 15.3069 5.08377 15.1115 4.88842C14.9162 4.69307 14.6512 4.58332 14.375 4.58332C14.0987 4.58332 13.8337 4.69307 13.6384 4.88842C13.443 5.08377 13.3333 5.34872 13.3333 5.62499C13.3333 5.90126 13.443 6.16621 13.6384 6.36156C13.8337 6.55691 14.0987 6.66666 14.375 6.66666C14.6512 6.66666 14.9162 6.55691 15.1115 6.36156C15.3069 6.16621 15.4166 5.90126 15.4166 5.62499ZM9.99996 7.49999C10.663 7.49999 11.2989 7.76338 11.7677 8.23222C12.2366 8.70106 12.5 9.33695 12.5 9.99999C12.5 10.663 12.2366 11.2989 11.7677 11.7678C11.2989 12.2366 10.663 12.5 9.99996 12.5C9.33692 12.5 8.70103 12.2366 8.23219 11.7678C7.76335 11.2989 7.49996 10.663 7.49996 9.99999C7.49996 9.33695 7.76335 8.70106 8.23219 8.23222C8.70103 7.76338 9.33692 7.49999 9.99996 7.49999V7.49999Z" fill="#4B4B58"/>
</svg>
