<svg width="20" height="20" viewBox="0 0 20 20" fill="none" xmlns="http://www.w3.org/2000/svg">
<path fill-rule="evenodd" clip-rule="evenodd" d="M10 18.3333C14.6024 18.3333 18.3334 14.6024 18.3334 9.99999C18.3334 5.39762 14.6024 1.66666 10 1.66666C5.39765 1.66666 1.66669 5.39762 1.66669 9.99999C1.66669 14.6024 5.39765 18.3333 10 18.3333ZM6.99792 12.9611C7.20346 12.6838 7.59489 12.6257 7.8722 12.8312C8.47915 13.2811 9.21177 13.5417 10 13.5417C10.7883 13.5417 11.5209 13.2811 12.1278 12.8312C12.4051 12.6257 12.7966 12.6838 13.0021 12.9611C13.2077 13.2385 13.1495 13.6299 12.8722 13.8354C12.0619 14.4361 11.0708 14.7917 10 14.7917C8.92921 14.7917 7.93819 14.4361 7.12784 13.8354C6.85054 13.6299 6.79237 13.2385 6.99792 12.9611ZM13.3334 8.74999C13.3334 9.44035 12.9603 9.99999 12.5 9.99999C12.0398 9.99999 11.6667 9.44035 11.6667 8.74999C11.6667 8.05963 12.0398 7.49999 12.5 7.49999C12.9603 7.49999 13.3334 8.05963 13.3334 8.74999ZM7.50002 9.99999C7.96026 9.99999 8.33335 9.44035 8.33335 8.74999C8.33335 8.05963 7.96026 7.49999 7.50002 7.49999C7.03978 7.49999 6.66669 8.05963 6.66669 8.74999C6.66669 9.44035 7.03978 9.99999 7.50002 9.99999Z" fill="#4B4B58"/>
</svg>
