<svg width="6" height="16" viewBox="0 0 6 16" fill="none" xmlns="http://www.w3.org/2000/svg">
<path d="M5.0625 13.25C5.0625 12.1109 4.13909 11.1875 3 11.1875C1.86091 11.1875 0.937499 12.1109 0.937499 13.25C0.937499 14.3891 1.86091 15.3125 3 15.3125C4.13909 15.3125 5.0625 14.3891 5.0625 13.25Z" fill="#4B4B58"/>
<path d="M5.0625 8C5.0625 6.86091 4.13909 5.9375 3 5.9375C1.86091 5.9375 0.937499 6.86091 0.937499 8C0.937499 9.13909 1.86091 10.0625 3 10.0625C4.13909 10.0625 5.0625 9.13909 5.0625 8Z" fill="#4B4B58"/>
<path d="M5.0625 2.75C5.0625 1.61091 4.13909 0.6875 3 0.6875C1.86091 0.6875 0.9375 1.61091 0.9375 2.75C0.9375 3.88909 1.86091 4.8125 3 4.8125C4.13909 4.8125 5.0625 3.88909 5.0625 2.75Z" fill="#4B4B58"/>
</svg>
