<svg width="38" height="38" viewBox="0 0 38 38" fill="none" xmlns="http://www.w3.org/2000/svg">
<rect width="38" height="38" rx="4" fill="#29292F"/>
<path d="M25 18.0333V15.6667C23.8917 15.6667 23.0458 15.3708 22.5 14.7958C21.9398 14.1396 21.6259 13.3086 21.6125 12.4458V12.275L19.375 12.2208C19.375 12.2208 19.375 12.3167 19.375 12.4458V21.8333C19.2982 22.2527 19.0947 22.6385 18.7917 22.9385C18.4888 23.2385 18.1011 23.4384 17.681 23.5111C17.2609 23.5838 16.8285 23.5259 16.4424 23.3451C16.0563 23.1643 15.7349 22.8694 15.5216 22.5002C15.3084 22.131 15.2136 21.7052 15.25 21.2804C15.2864 20.8556 15.4522 20.4522 15.7252 20.1247C15.9981 19.7971 16.365 19.5612 16.7762 19.4487C17.1875 19.3363 17.6234 19.3527 18.025 19.4958V17.2042C17.7908 17.1658 17.554 17.1463 17.3167 17.1458C16.4629 17.1458 15.6283 17.399 14.9185 17.8733C14.2086 18.3476 13.6553 19.0218 13.3286 19.8106C13.0019 20.5993 12.9164 21.4673 13.0829 22.3046C13.2495 23.142 13.6606 23.9111 14.2643 24.5148C14.868 25.1185 15.6372 25.5297 16.4745 25.6962C17.3119 25.8628 18.1798 25.7773 18.9686 25.4506C19.7574 25.1239 20.4315 24.5706 20.9058 23.8607C21.3802 23.1508 21.6333 22.3162 21.6333 21.4625C21.6329 21.2856 21.6217 21.1089 21.6 20.9333V17.1208C22.6174 17.7562 23.8012 18.0739 25 18.0333Z" fill="#4B4B58"/>
</svg>
