<svg width="20" height="25" viewBox="0 0 20 25" fill="none" xmlns="http://www.w3.org/2000/svg">
<g filter="url(#filter0_d_1_491)">
<path d="M16 9.03333V6.66666C14.8917 6.66666 14.0458 6.37083 13.5 5.79583C12.9398 5.1396 12.6259 4.30855 12.6125 3.44583V3.27499L10.375 3.22083C10.375 3.22083 10.375 3.31666 10.375 3.44583V12.8333C10.2982 13.2527 10.0947 13.6385 9.79173 13.9385C9.48879 14.2385 9.1011 14.4384 8.68098 14.5111C8.26086 14.5838 7.82854 14.5259 7.4424 14.3451C7.05625 14.1643 6.73487 13.8694 6.52163 13.5002C6.3084 13.131 6.21358 12.7052 6.24997 12.2804C6.28637 11.8556 6.45223 11.4522 6.72517 11.1247C6.9981 10.7971 7.36497 10.5612 7.77624 10.4487C8.1875 10.3363 8.62337 10.3527 9.025 10.4958V8.20416C8.79083 8.16579 8.55396 8.14628 8.31667 8.14582C7.46291 8.14582 6.62833 8.39899 5.91846 8.87331C5.20858 9.34764 4.65531 10.0218 4.32859 10.8106C4.00187 11.5993 3.91639 12.4673 4.08295 13.3046C4.24951 14.142 4.66063 14.9111 5.26432 15.5148C5.86802 16.1185 6.63718 16.5297 7.47453 16.6962C8.31188 16.8628 9.17982 16.7773 9.96859 16.4506C10.7574 16.1239 11.4315 15.5706 11.9058 14.8607C12.3802 14.1508 12.6333 13.3162 12.6333 12.4625C12.6329 12.2856 12.6217 12.1089 12.6 11.9333V8.12083C13.6174 8.75622 14.8012 9.07391 16 9.03333Z" fill="#4B4B58"/>
</g>
<defs>
<filter id="filter0_d_1_491" x="-4" y="0" width="28" height="28" filterUnits="userSpaceOnUse" color-interpolation-filters="sRGB">
<feFlood flood-opacity="0" result="BackgroundImageFix"/>
<feColorMatrix in="SourceAlpha" type="matrix" values="0 0 0 0 0 0 0 0 0 0 0 0 0 0 0 0 0 0 127 0" result="hardAlpha"/>
<feOffset dy="4"/>
<feGaussianBlur stdDeviation="2"/>
<feComposite in2="hardAlpha" operator="out"/>
<feColorMatrix type="matrix" values="0 0 0 0 0 0 0 0 0 0 0 0 0 0 0 0 0 0 0.25 0"/>
<feBlend mode="normal" in2="BackgroundImageFix" result="effect1_dropShadow_1_491"/>
<feBlend mode="normal" in="SourceGraphic" in2="effect1_dropShadow_1_491" result="shape"/>
</filter>
</defs>
</svg>
