<svg width="38" height="38" viewBox="0 0 38 38" fill="none" xmlns="http://www.w3.org/2000/svg">
<rect width="38" height="38" rx="4" fill="#29292F"/>
<path d="M27.75 14.0001L25.875 14.3126L27.125 12.7501L24.9375 13.3751C22.125 10.2501 17.75 13.6876 19 16.5001C14 16.5001 11.5 12.7501 11.5 12.7501C11.5 12.7501 9.625 15.5626 12.75 17.7501L10.875 17.1251C10.875 19.0001 12.125 20.2501 14.3125 20.8751H12.125C13.375 23.3751 15.5625 23.3751 15.5625 23.3751C15.5625 23.3751 13.6875 24.9376 10.25 24.9376C20.5625 29.9376 26.8125 20.5626 25.875 15.5626L27.75 14.0001Z" fill="#4B4B58"/>
</svg>
