<svg width="66" height="66" viewBox="0 0 66 66" fill="none" xmlns="http://www.w3.org/2000/svg">
<rect width="66" height="66" rx="8" fill="#16161B"/>
<g filter="url(#filter0_d_1_474)">
<path d="M34.4337 26.7401C33.737 25.7448 32.263 25.7448 31.5663 26.7401L29.4695 29.7356C29.3893 29.8502 29.2307 29.8767 29.1176 29.7944L26.0293 27.5483C24.8726 26.7071 23.25 27.5334 23.25 28.9636V36.9999C23.25 39.0709 24.9289 40.7499 27 40.7499H39C41.0711 40.7499 42.75 39.0709 42.75 36.9999V28.9636C42.75 27.5334 41.1274 26.7071 39.9707 27.5483L36.8824 29.7944C36.7693 29.8767 36.6107 29.8502 36.5305 29.7356L34.4337 26.7401Z" fill="#676778"/>
</g>
<defs>
<filter id="filter0_d_1_474" x="4.4" y="8.4" width="57.2" height="57.2" filterUnits="userSpaceOnUse" color-interpolation-filters="sRGB">
<feFlood flood-opacity="0" result="BackgroundImageFix"/>
<feColorMatrix in="SourceAlpha" type="matrix" values="0 0 0 0 0 0 0 0 0 0 0 0 0 0 0 0 0 0 127 0" result="hardAlpha"/>
<feOffset dy="4"/>
<feGaussianBlur stdDeviation="8.3"/>
<feComposite in2="hardAlpha" operator="out"/>
<feColorMatrix type="matrix" values="0 0 0 0 0.403922 0 0 0 0 0.403922 0 0 0 0 0.470588 0 0 0 0.43 0"/>
<feBlend mode="normal" in2="BackgroundImageFix" result="effect1_dropShadow_1_474"/>
<feBlend mode="normal" in="SourceGraphic" in2="effect1_dropShadow_1_474" result="shape"/>
</filter>
</defs>
</svg>
