<svg width="38" height="38" viewBox="0 0 38 38" fill="none" xmlns="http://www.w3.org/2000/svg">
<rect width="38" height="38" rx="4" fill="#29292F"/>
<path d="M28.58 14.1694C28.4639 13.7543 28.2425 13.3761 27.9373 13.0716C27.6322 12.7671 27.2535 12.5465 26.8381 12.4313C25.2787 12.0144 19.01 12.0144 19.01 12.0144C19.01 12.0144 12.7531 12.0044 11.1775 12.4313C10.7627 12.547 10.3849 12.7678 10.0804 13.0723C9.7759 13.3768 9.55511 13.7547 9.43936 14.1694C9.14324 15.7658 8.99739 17.3864 9.00374 19.01C9.00085 20.6258 9.14667 22.2385 9.43936 23.8275C9.55549 24.2425 9.77634 24.6207 10.0807 24.9257C10.3851 25.2307 10.7628 25.4524 11.1775 25.5694C12.7369 25.9863 19.01 25.9863 19.01 25.9863C19.01 25.9863 25.2631 25.9863 26.8381 25.5694C27.2535 25.4529 27.6319 25.2315 27.937 24.9264C28.242 24.6214 28.4635 24.2429 28.58 23.8275C28.8669 22.2394 29.0069 20.6244 28.9969 19.01C29.0069 17.3851 28.87 15.7675 28.58 14.1694ZM17.0075 22.0019V16.005L22.2256 19.01L17.0075 22.0019Z" fill="#4B4B58"/>
</svg>
