<svg width="20" height="20" viewBox="0 0 20 20" fill="none" xmlns="http://www.w3.org/2000/svg">
<path d="M19.58 5.16936C19.4639 4.7542 19.2425 4.37605 18.9373 4.07154C18.6322 3.76704 18.2535 3.54648 17.8381 3.43124C16.2787 3.01436 10.01 3.01436 10.01 3.01436C10.01 3.01436 3.75311 3.00436 2.17749 3.43124C1.76274 3.54699 1.38486 3.76777 1.08038 4.07225C0.775899 4.37673 0.555114 4.75461 0.439364 5.16936C0.143238 6.76575 -0.0026077 8.38638 0.00373853 10.01C0.000849095 11.6258 0.146672 13.2384 0.439364 14.8275C0.555488 15.2425 0.776339 15.6206 1.08071 15.9256C1.38509 16.2307 1.76277 16.4523 2.17749 16.5694C3.73686 16.9862 10.01 16.9862 10.01 16.9862C10.01 16.9862 16.2631 16.9862 17.8381 16.5694C18.2535 16.4528 18.6319 16.2314 18.937 15.9264C19.242 15.6213 19.4635 15.2429 19.58 14.8275C19.8669 13.2394 20.0069 11.6244 19.9969 10.01C20.0069 8.38499 19.87 6.76749 19.58 5.16936ZM8.00749 13.0019V7.00499L13.2256 10.01L8.00749 13.0019Z" fill="#4B4B58"/>
</svg>
